PathFileType	4	(X/Y/Z)	Kaydara	
DataRate	CameraRate	NumFrames	NumMarkers	Units	OrigDataRate	OrigDataStartFrame	OrigNumFrames	
60.00	60.00	4	74	mm	60.00	426	151	
Frame#	Time	Z_lasi			Z_rasi			Z_rpsi			Z_lpsi			Z_fneck			Z_bneck			Z_fhead			Z_rhead			Z_lhead			Z_rshld			Z_relbtop			Z_relbext			Z_relblow			Z_rwrext			Z_rwrtop			Z_rwrlow			Z_lshld			Z_lelbext			Z_lelblow			Z_lelbtop			Z_lwrext			Z_lwrtop			Z_lwrlow			Z_rtopleg			Z_ltopleg			Z_rkneefr			Z_rkneebk			Z_rkneeis			Z_lkneefr			Z_lknssbk			Z_lkneeis			Z_rankfr			Z_rankis			Z_rankbk			Z_lankfr			Z_lankbk			Z_lankis			A_lasi			A_rasi			A_rpsi			A_lpsi			A_fneck			A_bneck			A_fhead			A_rhead			A_lhead			A_rshld			A_relbtop			A_relbext			A_relblow			A_rwrext			A_rwrtop			A_rwrlow			A_lshld			A_lelbext			A_lelblow			A_lelbtop			A_lwrext			A_lwrtop			A_lwrlow			A_rtopleg			A_ltopleg			A_rkneefr			A_rkneebk			A_rkneeis			A_lkneefr			A_lknssbk			A_lkneeis			A_rankfr			A_rankis			A_rankbk			A_lankfr			A_lankbk			A_lankis			
		X1	Y1	Z1	X2	Y2	Z2	X3	Y3	Z3	X4	Y4	Z4	X5	Y5	Z5	X6	Y6	Z6	X7	Y7	Z7	X8	Y8	Z8	X9	Y9	Z9	X10	Y10	Z10	X11	Y11	Z11	X12	Y12	Z12	X13	Y13	Z13	X14	Y14	Z14	X15	Y15	Z15	X16	Y16	Z16	X17	Y17	Z17	X18	Y18	Z18	X19	Y19	Z19	X20	Y20	Z20	X21	Y21	Z21	X22	Y22	Z22	X23	Y23	Z23	X24	Y24	Z24	X25	Y25	Z25	X26	Y26	Z26	X27	Y27	Z27	X28	Y28	Z28	X29	Y29	Z29	X30	Y30	Z30	X31	Y31	Z31	X32	Y32	Z32	X33	Y33	Z33	X34	Y34	Z34	X35	Y35	Z35	X36	Y36	Z36	X37	Y37	Z37	X38	Y38	Z38	X39	Y39	Z39	X40	Y40	Z40	X41	Y41	Z41	X42	Y42	Z42	X43	Y43	Z43	X44	Y44	Z44	X45	Y45	Z45	X46	Y46	Z46	X47	Y47	Z47	X48	Y48	Z48	X49	Y49	Z49	X50	Y50	Z50	X51	Y51	Z51	X52	Y52	Z52	X53	Y53	Z53	X54	Y54	Z54	X55	Y55	Z55	X56	Y56	Z56	X57	Y57	Z57	X58	Y58	Z58	X59	Y59	Z59	X60	Y60	Z60	X61	Y61	Z61	X62	Y62	Z62	X63	Y63	Z63	X64	Y64	Z64	X65	Y65	Z65	X66	Y66	Z66	X67	Y67	Z67	X68	Y68	Z68	X69	Y69	Z69	X70	Y70	Z70	X71	Y71	Z71	X72	Y72	Z72	X73	Y73	Z73	X74	Y74	Z74	

76	7.083	-278.56701	1080.38483	685.58823	-320.00675	1089.94339	484.34097	-146.49540	1115.49133	412.55177	-89.00090	1098.83286	650.89325	-268.18848	1449.15283	579.83456	-153.42188	1509.03748	577.02904	-338.17383	1662.87079	559.21276	-185.93273	1650.09979	488.86448	-186.72136	1651.02707	636.55983	-216.24319	1440.93781	371.47694	-169.21911	1122.07535	284.45679	-156.68228	1102.30850	341.32301	-241.52534	1134.43428	307.97928	-281.11872	900.82596	264.67487	-318.66344	917.16904	284.96216	-304.93523	910.89790	325.98072	-162.87048	1441.79916	762.49054	-120.53552	1127.19482	764.96689	-179.20027	1150.00916	828.85437	-110.54206	1147.38899	833.10364	-254.79918	896.84998	820.23407	-241.97752	889.42825	865.18059	-195.52158	883.41064	856.37337	-192.61925	927.67303	360.51571	-189.41296	892.57607	725.87059	-255.59988	422.03758	403.47130	-184.80011	453.31692	355.70877	-194.46159	431.41327	479.32629	-219.66133	445.85098	674.92867	-113.07070	473.52680	665.51437	-206.30470	443.34290	582.91546	-206.59557	181.36124	377.48154	-184.11497	176.08046	439.82037	-130.10290	176.08814	371.10195	-154.34088	163.32731	669.98428	-96.16426	166.75049	615.37682	-173.81186	174.18276	600.46082	-995.54359	1033.35823	469.16073	-980.09499	1040.92979	627.71389	-1139.73610	1038.24547	651.06834	-1119.40140	1041.51917	468.27045	-1057.59674	1383.78082	555.69984	-1197.95403	1403.40179	547.13543	-1014.15398	1598.74191	582.24747	-1157.79160	1542.23480	659.67361	-1156.42464	1562.31323	497.38102	-1134.27574	1351.89774	735.30045	-1109.31511	1059.92905	769.74800	-1169.82437	1051.59859	747.13814	-1106.82426	1048.36212	711.68808	-1079.72855	813.86108	797.91008	-1037.78511	825.31197	783.56018	-1045.94398	824.73450	745.36148	-1103.33267	1349.38934	377.72831	-1125.02525	1037.67036	363.87596	-1056.58600	1048.84575	384.56745	-1083.33595	1045.31708	337.55859	-1026.17393	823.09959	377.76779	-1028.57803	822.75177	336.67076	-985.51819	834.52782	346.87401	-1081.67137	875.64392	730.62050	-1054.19434	891.67381	392.05368	-1034.46716	453.64883	635.86201	-1139.12598	484.02855	685.24567	-1124.72137	484.78565	566.32282	-1022.98088	466.63765	509.92756	-1104.79462	478.57212	412.68391	-1129.26605	478.05527	536.65707	-1099.16122	164.35429	658.80226	-1135.39513	161.40759	594.46095	-1179.63547	151.54095	665.63957	-1069.54620	165.80946	458.14369	-1130.01137	166.62596	421.86440	-1129.82101	172.14804	510.80132 
77	7.100	-278.76818	1080.48431	685.28229	-320.14980	1089.94003	483.97469	-146.57882	1115.48073	412.73415	-88.98713	1098.90633	650.69008	-268.18827	1448.96149	579.18854	-153.65978	1509.11774	576.66786	-338.86013	1662.32483	558.74966	-186.50454	1650.19638	488.63716	-187.39811	1651.07590	636.24184	-216.24435	1440.96054	370.81413	-169.09294	1122.09862	283.81767	-156.55199	1102.31308	340.79144	-241.42944	1134.45213	307.38394	-280.95520	900.83908	263.81456	-318.58337	917.22717	283.93322	-304.68714	910.89149	324.98589	-163.09946	1441.99677	762.17796	-120.63963	1127.39449	764.86412	-179.49522	1150.15549	828.59024	-110.64799	1147.75650	832.94815	-254.61567	896.83907	819.90051	-242.01147	889.50485	864.82925	-195.29226	883.29781	856.07124	-192.41482	927.66396	360.33333	-189.36050	892.57202	725.60715	-255.57032	422.04071	403.36025	-184.76591	453.31127	355.52563	-194.40720	431.44482	479.19048	-219.62912	445.88383	674.81735	-113.16431	473.59310	665.48035	-206.35145	443.33927	582.79770	-206.58106	181.34880	377.42077	-184.12239	176.12129	439.76723	-130.08278	176.03456	371.06125	-154.36850	163.34127	669.95209	-96.11994	166.76542	615.23476	-173.81901	174.15319	600.40840	-995.37720	1033.16017	469.11755	-979.85497	1040.75485	627.70905	-1139.64439	1038.47481	651.01387	-1119.22707	1041.58417	468.20992	-1056.39671	1384.31396	555.51567	-1196.91124	1401.54587	546.98215	-1016.04263	1600.84412	582.97482	-1158.41286	1540.45959	659.65065	-1157.03568	1561.31134	497.34894	-1133.18237	1352.38983	734.97978	-1109.19212	1060.30167	769.50485	-1169.64241	1052.11685	746.97037	-1106.82541	1048.65532	711.40808	-1079.88960	814.26865	797.57538	-1037.82402	825.62317	783.32497	-1046.12396	825.05501	745.03128	-1102.39990	1349.30435	377.34169	-1124.88159	1037.58194	363.66550	-1056.36818	1048.69865	384.26342	-1083.21480	1045.14137	337.29870	-1026.06033	822.92755	377.74597	-1028.53912	822.57744	336.65684	-985.43381	834.32999	346.78917	-1081.77567	875.71663	730.60448	-1054.58717	891.47118	392.10812	-1034.53667	453.65734	635.92426	-1139.19411	484.04583	685.19806	-1124.74297	484.80564	566.29581	-1022.99187	466.62613	509.90189	-1104.82971	478.56079	412.67612	-1129.34425	478.06419	536.63750	-1099.17442	164.36911	658.80013	-1135.39597	161.42471	594.45255	-1179.65973	151.55285	665.62508	-1069.58466	165.81303	458.16021	-1130.00175	166.62050	421.84341	-1129.82834	172.14636	510.78751 
78	7.117	-278.96048	1080.52872	684.95766	-320.26459	1089.94431	483.64235	-147.15101	1115.47867	413.84529	-88.97588	1098.98209	650.47241	-268.12702	1448.87161	578.80180	-153.56993	1509.23492	576.22810	-339.72340	1661.75003	558.22029	-187.14529	1650.31326	488.29296	-188.16601	1651.14243	635.92064	-216.15683	1440.93353	370.39757	-168.96894	1122.15866	283.22653	-156.39181	1102.31812	340.25589	-241.27716	1134.45290	306.77206	-281.09592	900.71754	262.30707	-318.44967	917.23564	282.97003	-304.59194	910.88158	324.21341	-163.41091	1442.21710	761.88797	-120.77833	1127.58751	764.73320	-179.85653	1150.34424	828.26485	-111.00199	1147.98141	832.76299	-254.49121	896.84219	819.45976	-242.03794	889.66446	864.46945	-196.02047	884.29314	856.17416	-192.21310	927.65411	360.14503	-189.26325	892.62688	725.35454	-255.54810	422.05666	403.22964	-184.68815	453.30181	355.37388	-194.18697	431.37032	478.93970	-219.74758	445.91743	674.78180	-113.08092	473.55598	665.28305	-206.37768	443.36487	582.64885	-206.57629	181.35235	377.36702	-184.07854	176.10842	439.71199	-130.07910	176.02814	370.99060	-154.34050	163.33006	669.88304	-96.08751	166.78720	615.05920	-173.82832	174.15878	600.37514	-995.27756	1032.95616	469.05815	-979.72908	1040.58853	627.65301	-1139.45702	1038.67287	650.92323	-1119.06898	1041.70181	468.16956	-1055.07118	1385.00031	555.31883	-1195.71152	1399.65424	546.87706	-1018.28110	1603.08334	583.35735	-1159.24232	1538.63373	659.46060	-1157.79343	1560.16846	497.15752	-1131.79848	1352.81525	734.70352	-1108.91190	1060.68398	769.28688	-1169.43848	1052.69485	746.77460	-1106.42517	1049.15184	711.35666	-1080.12611	814.57199	797.31239	-1037.99057	825.87769	783.05771	-1046.40549	825.29488	744.72069	-1101.34560	1349.35806	377.04632	-1124.71024	1037.59300	363.47572	-1056.10458	1048.64792	383.97179	-1083.04932	1045.06493	337.05460	-1026.05125	822.83073	377.73636	-1028.55698	822.46773	336.62338	-985.43991	834.18327	346.72775	-1081.89110	875.76340	730.56633	-1054.22096	891.60507	391.95713	-1034.54025	453.68614	635.93994	-1139.25369	484.08035	685.15266	-1124.73045	484.82346	566.22883	-1023.00522	466.64505	509.86046	-1104.87137	478.55965	412.66293	-1129.39636	478.07163	536.60942	-1099.17320	164.39135	658.80997	-1135.39536	161.42277	594.45240	-1179.68140	151.55942	665.61470	-1069.58580	165.81228	458.16059	-1130.02159	166.61512	421.85745	-1129.85519	172.11491	510.75352 
79	7.133	-278.84333	1080.52521	684.46442	-320.37258	1089.95392	483.26740	-146.61907	1115.49309	412.72110	-88.95930	1099.09523	650.25032	-268.17738	1448.76144	578.39909	-154.00770	1509.43970	575.95524	-340.41176	1661.22742	557.63199	-187.75646	1650.43091	488.04287	-189.21492	1651.22498	635.74265	-216.13867	1440.97275	370.01873	-168.83568	1122.24510	282.61723	-156.37251	1102.43988	339.58683	-241.18284	1134.50012	306.05196	-280.69361	900.90088	261.77418	-318.10652	917.13287	282.69135	-304.43857	910.90614	323.37322	-163.68547	1442.44720	761.56036	-120.35455	1128.05725	764.80209	-180.12327	1150.55252	827.94952	-111.30533	1148.26530	832.57477	-254.54651	896.96228	819.04503	-242.06087	889.80080	864.19067	-196.29293	884.17267	855.02563	-192.02425	927.64816	359.92218	-189.18316	892.67746	725.08415	-255.53474	422.08584	403.08475	-184.59934	453.27320	355.20199	-194.36178	431.44566	478.96103	-219.84909	445.92690	674.68933	-113.42739	473.67226	665.35698	-206.39288	443.36571	582.51400	-206.52834	181.32864	377.30026	-184.10355	176.12816	439.68517	-130.05375	176.01437	370.93456	-154.33252	163.32844	669.87602	-96.19763	166.61800	615.49526	-173.80409	174.15173	600.32318	-995.13748	1032.78458	468.97465	-979.63036	1040.40810	627.54704	-1139.36432	1038.77899	650.83969	-1119.00169	1041.92337	468.11203	-1053.65974	1385.64880	555.25848	-1194.57451	1397.97226	546.79371	-1020.47630	1605.68970	583.85174	-1160.15701	1536.90628	659.13864	-1158.41949	1558.76984	496.68915	-1130.40070	1353.20923	734.54086	-1108.61717	1061.00891	769.15131	-1169.07249	1053.20221	746.59409	-1105.97038	1049.56146	711.36208	-1080.47348	814.79408	797.04056	-1038.26157	826.07216	782.99026	-1046.79459	825.46410	744.50584	-1099.98505	1349.43222	376.93138	-1124.38881	1037.74223	363.26214	-1055.79765	1048.64296	383.75580	-1082.78343	1045.11635	336.85699	-1026.32179	822.71187	377.56687	-1028.67752	822.40868	336.60801	-985.52277	834.06525	346.66767	-1082.04002	875.82565	730.49583	-1055.01480	891.23901	392.08370	-1034.59541	453.71418	635.92594	-1139.29466	484.10007	685.10460	-1124.71901	484.82315	566.18729	-1023.00217	466.64307	509.83402	-1104.91257	478.54153	412.64477	-1129.39735	478.06740	536.59794	-1099.20021	164.41891	658.82607	-1135.39658	161.42624	594.45587	-1179.72992	151.58988	665.57281	-1069.59579	165.82045	458.12721	-1130.04837	166.61150	421.82972	-1129.86580	172.12309	510.76439 
